<mxfile host="app.diagrams.net" modified="2021-10-11T15:18:17.492Z" agent="5.0 (Windows NT 10.0; Win64; x64) AppleWebKit/537.36 (KHTML, like Gecko) Chrome/94.0.4606.71 Safari/537.36" etag="KOsDP_xxDzAziP5Y7biD" version="15.5.0" type="github">
  <diagram id="WV8ajJeC2RAW7gQIek0C" name="Page-1">
    <mxGraphModel dx="1730" dy="912" grid="1" gridSize="10" guides="1" tooltips="1" connect="1" arrows="1" fold="1" page="1" pageScale="1" pageWidth="827" pageHeight="1169" math="0" shadow="0">
      <root>
        <mxCell id="0" />
        <mxCell id="1" parent="0" />
        <mxCell id="2jABmLZ-RLFLjIP7Mvll-1" value="Employee and Feedback management" style="shape=umlFrame;whiteSpace=wrap;html=1;width=120;height=50;" vertex="1" parent="1">
          <mxGeometry x="110" y="290" width="570" height="830" as="geometry" />
        </mxCell>
        <mxCell id="2jABmLZ-RLFLjIP7Mvll-2" value="Admin login&lt;br&gt;&lt;br&gt;Exp: username/password incorrect" style="ellipse;whiteSpace=wrap;html=1;" vertex="1" parent="1">
          <mxGeometry x="240" y="400" width="146" height="70" as="geometry" />
        </mxCell>
        <mxCell id="2jABmLZ-RLFLjIP7Mvll-3" value="" style="line;strokeWidth=1;fillColor=none;align=left;verticalAlign=middle;spacingTop=-1;spacingLeft=3;spacingRight=3;rotatable=0;labelPosition=right;points=[];portConstraint=eastwest;" vertex="1" parent="1">
          <mxGeometry x="243" y="420" width="140" height="8" as="geometry" />
        </mxCell>
        <mxCell id="2jABmLZ-RLFLjIP7Mvll-4" value="Validate login" style="ellipse;whiteSpace=wrap;html=1;" vertex="1" parent="1">
          <mxGeometry x="450" y="330" width="100" height="49" as="geometry" />
        </mxCell>
        <mxCell id="2jABmLZ-RLFLjIP7Mvll-10" value="" style="endArrow=classic;dashed=1;endFill=1;endSize=12;html=1;rounded=0;edgeStyle=orthogonalEdgeStyle;exitX=0.5;exitY=0;exitDx=0;exitDy=0;entryX=0;entryY=0.5;entryDx=0;entryDy=0;" edge="1" parent="1" source="2jABmLZ-RLFLjIP7Mvll-2" target="2jABmLZ-RLFLjIP7Mvll-4">
          <mxGeometry width="160" relative="1" as="geometry">
            <mxPoint x="390" y="480" as="sourcePoint" />
            <mxPoint x="550" y="480" as="targetPoint" />
            <Array as="points">
              <mxPoint x="313" y="370" />
              <mxPoint x="410" y="370" />
              <mxPoint x="410" y="355" />
            </Array>
          </mxGeometry>
        </mxCell>
        <mxCell id="2jABmLZ-RLFLjIP7Mvll-11" value="&amp;lt;&amp;lt;include&amp;gt;&amp;gt;" style="edgeLabel;html=1;align=center;verticalAlign=middle;resizable=0;points=[];" vertex="1" connectable="0" parent="2jABmLZ-RLFLjIP7Mvll-10">
          <mxGeometry x="-0.1699" relative="1" as="geometry">
            <mxPoint as="offset" />
          </mxGeometry>
        </mxCell>
        <mxCell id="2jABmLZ-RLFLjIP7Mvll-12" value="Add Employee to the system" style="ellipse;whiteSpace=wrap;html=1;" vertex="1" parent="1">
          <mxGeometry x="150" y="540" width="100" height="49" as="geometry" />
        </mxCell>
        <mxCell id="2jABmLZ-RLFLjIP7Mvll-13" value="View Employee" style="ellipse;whiteSpace=wrap;html=1;" vertex="1" parent="1">
          <mxGeometry x="150" y="660.5" width="100" height="49" as="geometry" />
        </mxCell>
        <mxCell id="2jABmLZ-RLFLjIP7Mvll-14" value="Edit/Update Employee" style="ellipse;whiteSpace=wrap;html=1;" vertex="1" parent="1">
          <mxGeometry x="150" y="600" width="100" height="49" as="geometry" />
        </mxCell>
        <mxCell id="2jABmLZ-RLFLjIP7Mvll-15" value="Delete Employee from the system" style="ellipse;whiteSpace=wrap;html=1;" vertex="1" parent="1">
          <mxGeometry x="150" y="720" width="100" height="49" as="geometry" />
        </mxCell>
        <mxCell id="2jABmLZ-RLFLjIP7Mvll-16" value="Generate Employee report&amp;nbsp;" style="ellipse;whiteSpace=wrap;html=1;" vertex="1" parent="1">
          <mxGeometry x="150" y="780" width="100" height="49" as="geometry" />
        </mxCell>
        <mxCell id="2jABmLZ-RLFLjIP7Mvll-17" value="View Customer Feedback" style="ellipse;whiteSpace=wrap;html=1;" vertex="1" parent="1">
          <mxGeometry x="150" y="890" width="100" height="49" as="geometry" />
        </mxCell>
        <mxCell id="2jABmLZ-RLFLjIP7Mvll-18" value="Validate user input" style="ellipse;whiteSpace=wrap;html=1;" vertex="1" parent="1">
          <mxGeometry x="345" y="520" width="100" height="49" as="geometry" />
        </mxCell>
        <mxCell id="2jABmLZ-RLFLjIP7Mvll-19" value="" style="endArrow=classic;dashed=1;endFill=1;endSize=12;html=1;rounded=0;edgeStyle=orthogonalEdgeStyle;exitX=1;exitY=0.5;exitDx=0;exitDy=0;entryX=0;entryY=1;entryDx=0;entryDy=0;" edge="1" parent="1" source="2jABmLZ-RLFLjIP7Mvll-14" target="2jABmLZ-RLFLjIP7Mvll-18">
          <mxGeometry width="160" relative="1" as="geometry">
            <mxPoint x="290" y="689.5" as="sourcePoint" />
            <mxPoint x="400" y="640" as="targetPoint" />
          </mxGeometry>
        </mxCell>
        <mxCell id="2jABmLZ-RLFLjIP7Mvll-20" value="&amp;lt;&amp;lt;include&amp;gt;&amp;gt;" style="edgeLabel;html=1;align=center;verticalAlign=middle;resizable=0;points=[];" vertex="1" connectable="0" parent="2jABmLZ-RLFLjIP7Mvll-19">
          <mxGeometry x="-0.1699" relative="1" as="geometry">
            <mxPoint as="offset" />
          </mxGeometry>
        </mxCell>
        <mxCell id="2jABmLZ-RLFLjIP7Mvll-21" value="" style="endArrow=classic;dashed=1;endFill=1;endSize=12;html=1;rounded=0;edgeStyle=orthogonalEdgeStyle;exitX=1;exitY=0.531;exitDx=0;exitDy=0;entryX=0;entryY=0.5;entryDx=0;entryDy=0;exitPerimeter=0;" edge="1" parent="1" source="2jABmLZ-RLFLjIP7Mvll-12" target="2jABmLZ-RLFLjIP7Mvll-18">
          <mxGeometry width="160" relative="1" as="geometry">
            <mxPoint x="260" y="566" as="sourcePoint" />
            <mxPoint x="370" y="530" as="targetPoint" />
          </mxGeometry>
        </mxCell>
        <mxCell id="2jABmLZ-RLFLjIP7Mvll-22" value="&amp;lt;&amp;lt;include&amp;gt;&amp;gt;" style="edgeLabel;html=1;align=center;verticalAlign=middle;resizable=0;points=[];" vertex="1" connectable="0" parent="2jABmLZ-RLFLjIP7Mvll-21">
          <mxGeometry x="-0.1699" relative="1" as="geometry">
            <mxPoint as="offset" />
          </mxGeometry>
        </mxCell>
        <mxCell id="2jABmLZ-RLFLjIP7Mvll-23" value="" style="endArrow=classic;dashed=1;endFill=1;endSize=12;html=1;rounded=0;edgeStyle=orthogonalEdgeStyle;exitX=0.404;exitY=-0.029;exitDx=0;exitDy=0;entryX=0.5;entryY=1;entryDx=0;entryDy=0;exitPerimeter=0;" edge="1" parent="1" source="2jABmLZ-RLFLjIP7Mvll-12" target="2jABmLZ-RLFLjIP7Mvll-2">
          <mxGeometry width="160" relative="1" as="geometry">
            <mxPoint x="190" y="529.5" as="sourcePoint" />
            <mxPoint x="274" y="490" as="targetPoint" />
          </mxGeometry>
        </mxCell>
        <mxCell id="2jABmLZ-RLFLjIP7Mvll-24" value="&amp;lt;&amp;lt;include&amp;gt;&amp;gt;" style="edgeLabel;html=1;align=center;verticalAlign=middle;resizable=0;points=[];" vertex="1" connectable="0" parent="2jABmLZ-RLFLjIP7Mvll-23">
          <mxGeometry x="-0.1699" relative="1" as="geometry">
            <mxPoint as="offset" />
          </mxGeometry>
        </mxCell>
        <mxCell id="2jABmLZ-RLFLjIP7Mvll-26" value="" style="endArrow=classic;dashed=1;endFill=1;endSize=12;html=1;rounded=0;edgeStyle=orthogonalEdgeStyle;exitX=0.964;exitY=0.771;exitDx=0;exitDy=0;entryX=1;entryY=1;entryDx=0;entryDy=0;exitPerimeter=0;" edge="1" parent="1" source="2jABmLZ-RLFLjIP7Mvll-14" target="2jABmLZ-RLFLjIP7Mvll-2">
          <mxGeometry width="160" relative="1" as="geometry">
            <mxPoint x="240.0000000000001" y="638.579" as="sourcePoint" />
            <mxPoint x="362.6" y="570" as="targetPoint" />
            <Array as="points">
              <mxPoint x="246" y="650" />
              <mxPoint x="590" y="650" />
              <mxPoint x="590" y="490" />
              <mxPoint x="365" y="490" />
            </Array>
          </mxGeometry>
        </mxCell>
        <mxCell id="2jABmLZ-RLFLjIP7Mvll-27" value="&amp;lt;&amp;lt;include&amp;gt;&amp;gt;" style="edgeLabel;html=1;align=center;verticalAlign=middle;resizable=0;points=[];" vertex="1" connectable="0" parent="2jABmLZ-RLFLjIP7Mvll-26">
          <mxGeometry x="-0.1699" relative="1" as="geometry">
            <mxPoint x="-55" y="1" as="offset" />
          </mxGeometry>
        </mxCell>
        <mxCell id="2jABmLZ-RLFLjIP7Mvll-28" value="" style="endArrow=classic;dashed=1;endFill=1;endSize=12;html=1;rounded=0;edgeStyle=orthogonalEdgeStyle;exitX=1;exitY=0.5;exitDx=0;exitDy=0;entryX=0.948;entryY=0.826;entryDx=0;entryDy=0;entryPerimeter=0;" edge="1" parent="1" source="2jABmLZ-RLFLjIP7Mvll-13" target="2jABmLZ-RLFLjIP7Mvll-2">
          <mxGeometry width="160" relative="1" as="geometry">
            <mxPoint x="284.0000000000001" y="698.579" as="sourcePoint" />
            <mxPoint x="430" y="640" as="targetPoint" />
            <Array as="points">
              <mxPoint x="600" y="685" />
              <mxPoint x="600" y="458" />
            </Array>
          </mxGeometry>
        </mxCell>
        <mxCell id="2jABmLZ-RLFLjIP7Mvll-29" value="&amp;lt;&amp;lt;include&amp;gt;&amp;gt;" style="edgeLabel;html=1;align=center;verticalAlign=middle;resizable=0;points=[];" vertex="1" connectable="0" parent="2jABmLZ-RLFLjIP7Mvll-28">
          <mxGeometry x="-0.1699" relative="1" as="geometry">
            <mxPoint x="-82" as="offset" />
          </mxGeometry>
        </mxCell>
        <mxCell id="2jABmLZ-RLFLjIP7Mvll-30" value="" style="endArrow=classic;dashed=1;endFill=1;endSize=12;html=1;rounded=0;edgeStyle=orthogonalEdgeStyle;entryX=0.986;entryY=0.654;entryDx=0;entryDy=0;entryPerimeter=0;" edge="1" parent="1" target="2jABmLZ-RLFLjIP7Mvll-2">
          <mxGeometry width="160" relative="1" as="geometry">
            <mxPoint x="250" y="745" as="sourcePoint" />
            <mxPoint x="430" y="680" as="targetPoint" />
            <Array as="points">
              <mxPoint x="610" y="745" />
              <mxPoint x="610" y="446" />
            </Array>
          </mxGeometry>
        </mxCell>
        <mxCell id="2jABmLZ-RLFLjIP7Mvll-31" value="&amp;lt;&amp;lt;include&amp;gt;&amp;gt;" style="edgeLabel;html=1;align=center;verticalAlign=middle;resizable=0;points=[];" vertex="1" connectable="0" parent="2jABmLZ-RLFLjIP7Mvll-30">
          <mxGeometry x="-0.1699" relative="1" as="geometry">
            <mxPoint x="-110" y="7" as="offset" />
          </mxGeometry>
        </mxCell>
        <mxCell id="2jABmLZ-RLFLjIP7Mvll-32" value="" style="endArrow=classic;dashed=1;endFill=1;endSize=12;html=1;rounded=0;edgeStyle=orthogonalEdgeStyle;entryX=1;entryY=0.5;entryDx=0;entryDy=0;" edge="1" parent="1" target="2jABmLZ-RLFLjIP7Mvll-2">
          <mxGeometry width="160" relative="1" as="geometry">
            <mxPoint x="250" y="809.22" as="sourcePoint" />
            <mxPoint x="383.9559999999999" y="510" as="targetPoint" />
            <Array as="points">
              <mxPoint x="620" y="809" />
              <mxPoint x="620" y="435" />
            </Array>
          </mxGeometry>
        </mxCell>
        <mxCell id="2jABmLZ-RLFLjIP7Mvll-33" value="&amp;lt;&amp;lt;include&amp;gt;&amp;gt;" style="edgeLabel;html=1;align=center;verticalAlign=middle;resizable=0;points=[];" vertex="1" connectable="0" parent="2jABmLZ-RLFLjIP7Mvll-32">
          <mxGeometry x="-0.1699" relative="1" as="geometry">
            <mxPoint x="-120" y="37" as="offset" />
          </mxGeometry>
        </mxCell>
        <mxCell id="2jABmLZ-RLFLjIP7Mvll-34" value="Display validation message" style="ellipse;whiteSpace=wrap;html=1;" vertex="1" parent="1">
          <mxGeometry x="480" y="530" width="100" height="49" as="geometry" />
        </mxCell>
        <mxCell id="2jABmLZ-RLFLjIP7Mvll-35" value="" style="endArrow=classic;dashed=1;endFill=1;endSize=12;html=1;rounded=0;edgeStyle=orthogonalEdgeStyle;exitX=0.5;exitY=1;exitDx=0;exitDy=0;entryX=0.5;entryY=1;entryDx=0;entryDy=0;" edge="1" parent="1" source="2jABmLZ-RLFLjIP7Mvll-18" target="2jABmLZ-RLFLjIP7Mvll-34">
          <mxGeometry width="160" relative="1" as="geometry">
            <mxPoint x="450" y="600" as="sourcePoint" />
            <mxPoint x="610" y="600" as="targetPoint" />
            <Array as="points">
              <mxPoint x="410" y="619" />
              <mxPoint x="410" y="620" />
              <mxPoint x="530" y="620" />
            </Array>
          </mxGeometry>
        </mxCell>
        <mxCell id="2jABmLZ-RLFLjIP7Mvll-36" value="&amp;lt;&amp;lt;extend&amp;gt;&amp;gt;" style="edgeLabel;html=1;align=center;verticalAlign=middle;resizable=0;points=[];" vertex="1" connectable="0" parent="2jABmLZ-RLFLjIP7Mvll-35">
          <mxGeometry x="-0.0604" y="-1" relative="1" as="geometry">
            <mxPoint as="offset" />
          </mxGeometry>
        </mxCell>
        <mxCell id="2jABmLZ-RLFLjIP7Mvll-37" value="Add Customer feedback" style="ellipse;whiteSpace=wrap;html=1;" vertex="1" parent="1">
          <mxGeometry x="530" y="890" width="100" height="49" as="geometry" />
        </mxCell>
        <mxCell id="2jABmLZ-RLFLjIP7Mvll-38" value="" style="endArrow=classic;dashed=1;endFill=1;endSize=12;html=1;rounded=0;edgeStyle=orthogonalEdgeStyle;entryX=1;entryY=0;entryDx=0;entryDy=0;exitX=1;exitY=0;exitDx=0;exitDy=0;" edge="1" parent="1" source="2jABmLZ-RLFLjIP7Mvll-17" target="2jABmLZ-RLFLjIP7Mvll-2">
          <mxGeometry width="160" relative="1" as="geometry">
            <mxPoint x="260" y="794.22" as="sourcePoint" />
            <mxPoint x="396" y="420" as="targetPoint" />
            <Array as="points">
              <mxPoint x="280" y="897" />
              <mxPoint x="280" y="840" />
              <mxPoint x="630" y="840" />
              <mxPoint x="630" y="410" />
            </Array>
          </mxGeometry>
        </mxCell>
        <mxCell id="2jABmLZ-RLFLjIP7Mvll-39" value="&amp;lt;&amp;lt;include&amp;gt;&amp;gt;" style="edgeLabel;html=1;align=center;verticalAlign=middle;resizable=0;points=[];" vertex="1" connectable="0" parent="2jABmLZ-RLFLjIP7Mvll-38">
          <mxGeometry x="-0.1699" relative="1" as="geometry">
            <mxPoint x="-120" y="37" as="offset" />
          </mxGeometry>
        </mxCell>
        <mxCell id="2jABmLZ-RLFLjIP7Mvll-41" value="Customer login&lt;br&gt;&lt;br&gt;Exp: username/password incorrect" style="ellipse;whiteSpace=wrap;html=1;" vertex="1" parent="1">
          <mxGeometry x="400" y="989.5" width="146" height="70" as="geometry" />
        </mxCell>
        <mxCell id="2jABmLZ-RLFLjIP7Mvll-42" value="" style="line;strokeWidth=1;fillColor=none;align=left;verticalAlign=middle;spacingTop=-1;spacingLeft=3;spacingRight=3;rotatable=0;labelPosition=right;points=[];portConstraint=eastwest;" vertex="1" parent="1">
          <mxGeometry x="403" y="1010" width="140" height="8" as="geometry" />
        </mxCell>
        <mxCell id="2jABmLZ-RLFLjIP7Mvll-43" value="Validate login" style="ellipse;whiteSpace=wrap;html=1;" vertex="1" parent="1">
          <mxGeometry x="180" y="1000" width="100" height="49" as="geometry" />
        </mxCell>
        <mxCell id="2jABmLZ-RLFLjIP7Mvll-44" value="" style="endArrow=classic;dashed=1;endFill=1;endSize=12;html=1;rounded=0;edgeStyle=orthogonalEdgeStyle;exitX=0;exitY=0.5;exitDx=0;exitDy=0;entryX=0.5;entryY=0;entryDx=0;entryDy=0;" edge="1" parent="1" source="2jABmLZ-RLFLjIP7Mvll-37" target="2jABmLZ-RLFLjIP7Mvll-41">
          <mxGeometry width="160" relative="1" as="geometry">
            <mxPoint x="360" y="984.5" as="sourcePoint" />
            <mxPoint x="497" y="939" as="targetPoint" />
            <Array as="points">
              <mxPoint x="473" y="915" />
            </Array>
          </mxGeometry>
        </mxCell>
        <mxCell id="2jABmLZ-RLFLjIP7Mvll-45" value="&amp;lt;&amp;lt;include&amp;gt;&amp;gt;" style="edgeLabel;html=1;align=center;verticalAlign=middle;resizable=0;points=[];" vertex="1" connectable="0" parent="2jABmLZ-RLFLjIP7Mvll-44">
          <mxGeometry x="-0.1699" relative="1" as="geometry">
            <mxPoint x="-2" y="25" as="offset" />
          </mxGeometry>
        </mxCell>
        <mxCell id="2jABmLZ-RLFLjIP7Mvll-46" value="" style="endArrow=classic;dashed=1;endFill=1;endSize=12;html=1;rounded=0;edgeStyle=orthogonalEdgeStyle;exitX=0;exitY=0.5;exitDx=0;exitDy=0;entryX=1;entryY=0.5;entryDx=0;entryDy=0;" edge="1" parent="1" source="2jABmLZ-RLFLjIP7Mvll-41" target="2jABmLZ-RLFLjIP7Mvll-43">
          <mxGeometry width="160" relative="1" as="geometry">
            <mxPoint x="383" y="900" as="sourcePoint" />
            <mxPoint x="326" y="975" as="targetPoint" />
            <Array as="points">
              <mxPoint x="380" y="1025" />
              <mxPoint x="380" y="1025" />
            </Array>
          </mxGeometry>
        </mxCell>
        <mxCell id="2jABmLZ-RLFLjIP7Mvll-47" value="&amp;lt;&amp;lt;include&amp;gt;&amp;gt;" style="edgeLabel;html=1;align=center;verticalAlign=middle;resizable=0;points=[];" vertex="1" connectable="0" parent="2jABmLZ-RLFLjIP7Mvll-46">
          <mxGeometry x="-0.1699" relative="1" as="geometry">
            <mxPoint as="offset" />
          </mxGeometry>
        </mxCell>
        <mxCell id="2jABmLZ-RLFLjIP7Mvll-52" style="rounded=0;orthogonalLoop=1;jettySize=auto;html=1;exitX=0.5;exitY=0.5;exitDx=0;exitDy=0;exitPerimeter=0;entryX=0;entryY=0.5;entryDx=0;entryDy=0;endArrow=none;endFill=0;" edge="1" parent="1" source="2jABmLZ-RLFLjIP7Mvll-48" target="2jABmLZ-RLFLjIP7Mvll-12">
          <mxGeometry relative="1" as="geometry" />
        </mxCell>
        <mxCell id="2jABmLZ-RLFLjIP7Mvll-53" style="rounded=0;orthogonalLoop=1;jettySize=auto;html=1;exitX=0.5;exitY=0.5;exitDx=0;exitDy=0;exitPerimeter=0;entryX=0;entryY=0.5;entryDx=0;entryDy=0;endArrow=none;endFill=0;" edge="1" parent="1" source="2jABmLZ-RLFLjIP7Mvll-48" target="2jABmLZ-RLFLjIP7Mvll-14">
          <mxGeometry relative="1" as="geometry" />
        </mxCell>
        <mxCell id="2jABmLZ-RLFLjIP7Mvll-54" style="rounded=0;orthogonalLoop=1;jettySize=auto;html=1;exitX=0.5;exitY=0.5;exitDx=0;exitDy=0;exitPerimeter=0;entryX=0;entryY=1;entryDx=0;entryDy=0;endArrow=none;endFill=0;" edge="1" parent="1" source="2jABmLZ-RLFLjIP7Mvll-48" target="2jABmLZ-RLFLjIP7Mvll-13">
          <mxGeometry relative="1" as="geometry" />
        </mxCell>
        <mxCell id="2jABmLZ-RLFLjIP7Mvll-55" style="rounded=0;orthogonalLoop=1;jettySize=auto;html=1;exitX=0.5;exitY=0.5;exitDx=0;exitDy=0;exitPerimeter=0;entryX=0;entryY=0.5;entryDx=0;entryDy=0;endArrow=none;endFill=0;" edge="1" parent="1" source="2jABmLZ-RLFLjIP7Mvll-48" target="2jABmLZ-RLFLjIP7Mvll-15">
          <mxGeometry relative="1" as="geometry" />
        </mxCell>
        <mxCell id="2jABmLZ-RLFLjIP7Mvll-56" style="rounded=0;orthogonalLoop=1;jettySize=auto;html=1;exitX=0.5;exitY=0.5;exitDx=0;exitDy=0;exitPerimeter=0;entryX=0;entryY=0.5;entryDx=0;entryDy=0;endArrow=none;endFill=0;" edge="1" parent="1" source="2jABmLZ-RLFLjIP7Mvll-48" target="2jABmLZ-RLFLjIP7Mvll-16">
          <mxGeometry relative="1" as="geometry" />
        </mxCell>
        <mxCell id="2jABmLZ-RLFLjIP7Mvll-57" style="edgeStyle=none;rounded=0;orthogonalLoop=1;jettySize=auto;html=1;exitX=0.5;exitY=0.5;exitDx=0;exitDy=0;exitPerimeter=0;entryX=0.024;entryY=0.363;entryDx=0;entryDy=0;entryPerimeter=0;endArrow=none;endFill=0;" edge="1" parent="1" source="2jABmLZ-RLFLjIP7Mvll-48" target="2jABmLZ-RLFLjIP7Mvll-17">
          <mxGeometry relative="1" as="geometry" />
        </mxCell>
        <mxCell id="2jABmLZ-RLFLjIP7Mvll-48" value="Admin" style="shape=umlActor;verticalLabelPosition=bottom;verticalAlign=top;html=1;" vertex="1" parent="1">
          <mxGeometry x="40" y="649.5" width="30" height="60" as="geometry" />
        </mxCell>
        <mxCell id="2jABmLZ-RLFLjIP7Mvll-50" style="edgeStyle=orthogonalEdgeStyle;rounded=0;orthogonalLoop=1;jettySize=auto;html=1;entryX=0.5;entryY=0;entryDx=0;entryDy=0;entryPerimeter=0;endArrow=classic;endFill=1;" edge="1" parent="1" source="2jABmLZ-RLFLjIP7Mvll-49" target="2jABmLZ-RLFLjIP7Mvll-48">
          <mxGeometry relative="1" as="geometry">
            <Array as="points">
              <mxPoint x="55" y="610" />
              <mxPoint x="55" y="610" />
            </Array>
          </mxGeometry>
        </mxCell>
        <mxCell id="2jABmLZ-RLFLjIP7Mvll-49" value="Employee" style="shape=umlActor;verticalLabelPosition=bottom;verticalAlign=top;html=1;" vertex="1" parent="1">
          <mxGeometry x="40" y="440" width="30" height="60" as="geometry" />
        </mxCell>
        <mxCell id="2jABmLZ-RLFLjIP7Mvll-59" style="edgeStyle=none;rounded=0;orthogonalLoop=1;jettySize=auto;html=1;endArrow=none;endFill=0;" edge="1" parent="1" source="2jABmLZ-RLFLjIP7Mvll-58" target="2jABmLZ-RLFLjIP7Mvll-37">
          <mxGeometry relative="1" as="geometry" />
        </mxCell>
        <mxCell id="2jABmLZ-RLFLjIP7Mvll-58" value="Feedback" style="shape=umlActor;verticalLabelPosition=bottom;verticalAlign=top;html=1;" vertex="1" parent="1">
          <mxGeometry x="740" y="885" width="30" height="60" as="geometry" />
        </mxCell>
      </root>
    </mxGraphModel>
  </diagram>
</mxfile>
